<svg xmlns="http://www.w3.org/2000/svg" width="32" height="32" class="injected-svg" style="width:32px;height:32px" data-src="/static/media/icon-coin-dash.992004d7.svg" xmlns:xlink="http://www.w3.org/1999/xlink"><g fill="none"><path d="M15.918 31.928c8.8 0 15.928-7.128 15.928-15.928S24.718.072 15.918.072 0 7.2 0 16s7.128 15.928 15.918 15.928" fill="#008CE3"></path><path d="M18.349 9.026h-6.257l-.513 2.892 5.642.01c2.779 0 3.6 1.005 3.579 2.677-.01.862-.38 2.308-.544 2.78-.43 1.25-1.302 2.687-4.605 2.677h-5.487l-.523 2.902h6.236c2.195 0 3.138-.256 4.123-.718 2.195-1.015 3.508-3.18 4.03-6.01.79-4.215-.184-7.21-5.681-7.21" fill="#FFF"></path><path d="M9.405 14.544c-1.64 0-1.877 1.066-2.03 1.712-.206.841-.267 1.19-.267 1.19h6.4c1.64 0 1.877-1.067 2.03-1.713.206-.84.267-1.19.267-1.19h-6.4z" fill="#FFF"></path></g></svg>